<?xml version="1.0" encoding="UTF-8"?>
<svg width="498.57" height="498.57" version="1.1" viewBox="0 0 498.57 498.57" xml:space="preserve" xmlns="http://www.w3.org/2000/svg"><g transform="translate(119.2 .00049992)"><path d="m124.03 477.24v-80.088s-74.799-2.265-74.799-95.2h114.63v175.29z" fill="#ead3b5"/><path d="m124.03 477.24v-80.088s-74.799-2.265-74.799-95.2" fill="none" stroke="#000" stroke-miterlimit="10" stroke-width="8.035"/><path d="m68.022 154.62c-2.349 8.009-10.745 12.599-18.754 10.25l-34.389-11.147c-8.006-2.349-12.596-10.742-10.248-18.753l1.132-3.866c2.349-8.009 10.742-12.599 18.751-10.25l34.389 11.147c8.006 2.349 12.599 10.745 10.25 18.753z" fill="#ead3b5" stroke="#000" stroke-miterlimit="10" stroke-width="8.035"/><path d="m47.006 27.818c0-13.146 10.653-23.801 23.801-23.801h111.96c13.146 0 23.802 10.656 23.802 23.801v275.94c0 13.15-10.656 23.807-23.802 23.807h-111.96c-13.148 0-23.801-10.656-23.801-23.807v-275.94z" fill="#fff" stroke="#000" stroke-miterlimit="10" stroke-width="8.035"/><rect x="58.023" y="63.973" width="137.53" height="225.68" fill="#dedddd"/><rect x="58.023" y="41.043" width="137.53" height="22.93" fill="#6fcacd"/><rect x="58.023" y="64.797" width="137.53" height="3.644" fill="#b2b3b3"/><path d="m47.006 27.818c0-13.146 10.653-23.801 23.801-23.801h111.96c13.146 0 23.802 10.656 23.802 23.801v275.94c0 13.15-10.656 23.807-23.802 23.807h-111.96c-13.148 0-23.801-10.656-23.801-23.807v-275.94z" fill="none" stroke="#000" stroke-miterlimit="10" stroke-width="8.035"/><rect x="58.023" y="41.043" width="137.53" height="248.6" fill="none" stroke="#000" stroke-miterlimit="10" stroke-width="5.3566"/><path d="m129.32 14.926c0 1.399-1.132 2.535-2.532 2.535-1.404 0-2.537-1.135-2.537-2.535 0-1.399 1.133-2.537 2.537-2.537 1.399 0 2.532 1.138 2.532 2.537z"/><path d="m140.23 25.391c0 1.096-0.89 1.983-1.982 1.983h-22.92c-1.096 0-1.982-0.887-1.982-1.983s0.887-1.985 1.982-1.985h22.92c1.093 0 1.982 0.889 1.982 1.985z"/><path d="m138.03 308.14c0 6.205-5.035 11.237-11.239 11.237-6.209 0-11.244-5.032-11.244-11.237 0-6.214 5.035-11.241 11.244-11.241 6.204 0 11.239 5.027 11.239 11.241z" fill="none" stroke="#000" stroke-miterlimit="10" stroke-width="3.214"/><line x1="58.023" x2="195.56" y1="63.973" y2="63.973" fill="none" stroke="#000" stroke-miterlimit="10" stroke-width="5.3566"/><path d="m243.42 477.24v-228.18l-26.448-71.611h-67.241s-6.047 35.341 34.756 35.341l15.107 44.344s-74.677 23.655-50.183 112.81v107.29z" fill="#ead3b5"/><path d="m243.42 477.24v-228.18l-26.448-71.611h-67.241s-6.047 35.341 34.756 35.341l15.107 44.344s-74.677 23.655-50.183 112.81" fill="none" stroke="#000" stroke-miterlimit="10" stroke-width="8.035"/><g fill="#ead3b5" stroke="#000" stroke-miterlimit="10" stroke-width="8.035"><path d="m75.814 244.33c-2.636 7.917-11.195 12.199-19.112 9.563l-26.762-8.912c-7.92-2.636-12.199-11.195-9.562-19.112l1.274-3.824c2.636-7.917 11.192-12.199 19.111-9.562l26.763 8.914c7.917 2.637 12.199 11.192 9.562 19.112z"/><path d="m72.879 200.67c-2.628 7.919-11.182 12.212-19.102 9.586l-23.901-7.93c-7.922-2.626-12.212-11.179-9.586-19.099l1.266-3.827c2.628-7.92 11.184-12.212 19.104-9.586l23.898 7.931c7.925 2.626 12.215 11.179 9.589 19.099z"/><path d="m73.227 290.03c-3.274 7.669-12.152 11.236-19.829 7.967l-21.771-9.295c-7.674-3.27-11.244-12.147-7.97-19.826l1.585-3.704c3.272-7.679 12.152-11.246 19.826-7.967l21.771 9.285c7.677 3.275 11.247 12.152 7.967 19.831z"/></g><rect x="106.47" y="446" width="149.68" height="48.555" fill="#94d9f8" stroke="#000" stroke-linecap="round" stroke-miterlimit="10" stroke-width="8.035"/><path d="m138.4 471.13c0 4.708-3.819 8.526-8.529 8.526-4.711 0-8.53-3.818-8.53-8.526 0-4.714 3.819-8.532 8.53-8.532 4.71 0 8.529 3.818 8.529 8.532z"/><g transform="matrix(.10361 0 0 .10361 100.44 78.994)"><path class="st0" d="m210.4 330v23.3h91.1v-23.3c27.1 37.8 84.8 44.9 130.8 55.2 2.3 0.5 4.5 1.2 6.6 1.9 20.8-33.2 32.8-72.3 32.8-114.3 0-119.2-96.6-215.8-215.7-215.8s-215.7 96.6-215.7 215.8c0 42 12 81.2 32.8 114.3 2.1-0.8 4.3-1.4 6.6-1.9 46-10.3 103.7-17.4 130.7-55.2z" fill="#d87459"/><path class="st1" d="m203.8 36.5c17.1-15.9 108.8-28.1 145.5 31.8s17.1 45.2 37.9 83.2c20.8 37.9 20.8 42.8 1.2 69.7s-40.3 47.7-23.2 66 24.5 28.1 7.3 53.8c-17.1 25.7 41.6 55 18.3 86.8-23.2 31.8-231.1 41.6-244.6 4.9s8.6-62.4-4.9-80.7c-13.5-18.4-34.2-36.7 0-62.4 19.8-14.9-8.9-28.9-22.7-54.7-15.7-29.3-5.8-66 1.9-77.3 18.5-26.9 14.8-128.4 83.3-121.1" clip-rule="evenodd" fill="#843d1c" fill-rule="evenodd"/><path class="st2" d="m301.6 353.3c-0.1 0.1-0.2 0.2 0 0h-91.1c0.1 0.2 0.1 0.1 0 0l21.2 133.8c8 0.9 16.1 1.4 24.3 1.4s16.3-0.5 24.3-1.4z" fill="#564e43"/><path class="st3" d="m256 339.2c-11.7 0-28.3-7.5-45.5-20.8v34.9c0.3 0.3 0.6 0.6 0.8 1 12.4 15.2 28.6 23.2 44.7 23.3v-38.4z" fill="#dcc5a1"/><path class="st4" d="m256 377.6c16.2 0.1 32.3-7.5 44.7-23.3 0.3-0.3 0.6-0.7 0.9-1v-34.9c-17.2 13.3-33.8 20.8-45.6 20.8z" fill="#edd9b4"/><path class="st5" d="m256 339.2v-142.7c-22.8 0-45.6 15.1-45.6 45.2v76.7c17.3 13.3 33.9 20.8 45.6 20.8z" fill="#bc9f82"/><path class="st5" d="m256 196.5v142.8c11.7 0 28.3-7.5 45.6-20.8v-76.7c0-30.2-22.8-45.3-45.6-45.3z" fill="#bc9f82"/><path class="st1" d="m323.6 173.7c19.9 22.6 29.8 42.2 22.2 66.3-7.7 24.2-4.6 42.8 22.2 58.2 26.7 15.4 17.1 18.4 10.9 46.3-3.8 17.4 10.7 33.2 30.2 33.2 3.7 0-20.1-8.7-17-26.4 5-28.5 31-44.3 6.1-71.3s-16.2-30.8-8.9-47.7c7.3-17-13.3-49-39-75.8-157-163.9-46.6-5.4-26.7 17.2" clip-rule="evenodd" fill="#843d1c" fill-rule="evenodd"/><path class="st1" d="m190.7 178.9c-20.9 21.8-31.6 40.9-24.9 65.4s2.8 43-24.6 57.2c-27.3 14.2-17.8 17.6-12.8 45.8 3.1 17.5-12.1 32.7-31.6 31.9-3.7-0.2 20.5-7.9 18.1-25.7-3.8-28.7-29.1-45.6-3.1-71.5s17.5-30.1 10.9-47.3 15.3-48.3 42.1-74.1c163.7-157.2 46.8-3.4 25.9 18.3" clip-rule="evenodd" fill="#843d1c" fill-rule="evenodd"/><path class="st3" d="m254.7 49.1c-79.2 0-116.5 70.3-112.8 131.6-4.6-2.9-9.4-3.7-13.4-2-9.2 4-11.2 20.1-4.3 36.1s19.9 25.7 29.2 21.7c1.3-0.6 2.4-1.4 3.4-2.4 25 50.4 73.2 83.7 97.9 83.7 0.4 0 0.9-0.1 1.3-0.1v-268.6h-1.3z" fill="#dcc5a1"/><path class="st4" d="m383.5 178.7c-4.8-2.1-10.6-0.4-16.1 3.9 4.6-61.4-32.3-132.7-111.4-133.5v268.7c25.3-1.1 73.3-34.9 97.6-85.6 1.3 1.9 3 3.4 5 4.3 9.2 4 22.3-5.8 29.2-21.7 6.8-16 4.9-32.2-4.3-36.1z" fill="#edd9b4"/><g clip-rule="evenodd" fill="#843d1c" fill-rule="evenodd"><path class="st1" d="m208 78.2c7 34.2 43.3 52.3 77.5 57.4 34.2 5 64.4 5 45.3 28.2-19.1 23.1-8.1 44.3 10.1 57.4 18.1 13.1 12.1 48.3-4 70.4s-20.1 41.3-1 62.4 9.1 21.9-7 48.1c-10 16.3-2.4 35.2 15.8 39.5 3.4 0.8-15.5-13.1-6-29.9 15.3-27 36.5-36.6 23.5-68.8-13.1-32.2-5-33.2 8-48.3 13.1-15.1 18.1-53.3 2-84.5s11.1-21.1 8-59.4-96.7-179.2-172.2-72.5"/><path class="st1" d="m303.4 71.5c22.5 20.1 34.6 39.9 29.9 64.8-4.8 24.9 0.6 43.1 28.9 55.1 28.3 12.1 19.1 16.2 16.3 44.7-1.8 17.7 14.6 31.7 33.9 29.3 3.7-0.4-21-6.2-20-24.2 1.6-28.9 25.5-47.7-2.4-71.5-27.9-23.9-30.5-31.7-25.3-49.4 5.3-17.7-8.7-43.6-37-67.5-34.1-29.1-46.7-1.4-24.3 18.7"/><path class="st1" d="m204.2 71.5c-22.5 20.1-34.6 39.9-29.9 64.8 4.8 24.9-0.6 43.1-28.9 55.1-28.4 12.1-19.1 16.2-16.3 44.7 1.7 17.7-14.6 31.7-33.9 29.3-3.7-0.4 21-6.2 20-24.2-1.6-28.9-25.5-47.7 2.4-71.5 27.9-23.9 30.5-31.7 25.3-49.4s8.7-43.6 37-67.5c34.1-29.1 46.8-1.4 24.3 18.7"/><path class="st1" d="m268.4 49.3c-23.6 13.7-105 92.8-114.1 120.5-9.2 27.7 0.4 50.3 5.9 70.6-19.9-5-69.2-227.1 108.2-191.1"/></g><path class="st6" d="m268.5 261.2s0.5 7.9-13 7.9c-3.9 0-12.8-1.7-12.8-7.7 7.9 2 17.3 2.4 25.8-0.2" fill="#d43329"/><path class="st7" d="m260.6 258c3 0.4 8.2 3.1 7.9 3.2-8.4 2.6-17.9 2.1-25.8 0.2-0.1 0-0.2 0-0.2-0.1 2.7-1.1 6.2-3.4 8.8-3.2 1.4 0.1 3.1 1.2 4.4 1.2 1.8 0.1 3-1.6 4.9-1.3" fill="#ca3029"/><path class="st8" d="m238.2 260.2c10.1 4.2 24.3 4.6 34.2-0.2 0.2-0.1 0.1-0.5-0.2-0.4-11.9 3.8-21.9 3.1-34 0.6v0" fill="#a82623"/><path class="st9" d="m208.5 178.8c6.4 0 11.7 5.9 11.7 13.3 0 7.3-5.2 13.3-11.7 13.3s-11.7-5.9-11.7-13.3c0-7.3 5.3-13.3 11.7-13.3" fill="#342214"/><path class="st9" d="m303.5 178.8c6.4 0 11.7 5.9 11.7 13.3 0 7.3-5.2 13.3-11.7 13.3s-11.7-5.9-11.7-13.3c0-7.3 5.2-13.3 11.7-13.3" fill="#342214"/><g fill="#c93938"><path class="st10" d="m210.4 353.3c-0.1-0.2 0-0.1 0 0z"/><path class="st10" d="m210.4 353.3c0.1 0.1 0.2 0.2 0 0z"/><path class="st10" d="m301.6 353.3c0-0.1 0.1-0.2 0 0z"/><path class="st10" d="m301.6 353.3c-0.2 0.2-0.1 0.1 0 0z"/></g><path class="st11" d="m301.6 353.3c-0.2 0.2-0.1 0.1 0 0 0-0.1 0.1-0.2 0 0z" fill="#be1e2d"/><path class="st11" d="m210.4 353.3c0.1 0.1 0.2 0.2 0 0-0.1-0.2 0-0.1 0 0z" fill="#be1e2d"/><path class="st10" d="m231.7 487.1-21.2-133.8c-0.1-0.1-0.1-0.2 0 0v-23.3c-27.1 37.8-84.8 44.9-130.8 55.2-2.3 0.5-4.5 1.2-6.6 1.9 34 54.4 91.7 92.5 158.6 100z" fill="#c93938"/><path class="st10" d="m301.6 330v23.3c0.1-0.2 0.1-0.1 0 0l-21.2 133.8c66.9-7.5 124.6-45.6 158.6-100-2.1-0.8-4.3-1.4-6.6-1.9-46.1-10.3-103.8-17.4-130.8-55.2z" fill="#c93938"/></g></g><g fill="#ffe000" stroke="#000" stroke-linejoin="round" stroke-width="1.5"><path d="m196.2 138.75 2.4244 7.5173 7.8985-0.0173-6.4002 4.6287 2.4572 7.5066-6.3799-4.6566-6.3799 4.6566 2.4572-7.5066-6.4002-4.6287 7.8985 0.0173z"/><path d="m221.2 138.75 2.4244 7.5173 7.8985-0.0173-6.4002 4.6287 2.4572 7.5066-6.3799-4.6566-6.3799 4.6566 2.4572-7.5066-6.4002-4.6287 7.8985 0.0173z"/><path d="m246.2 138.75 2.4244 7.5173 7.8985-0.0173-6.4002 4.6287 2.4572 7.5066-6.3799-4.6566-6.3799 4.6566 2.4572-7.5066-6.4002-4.6287 7.8985 0.0173z"/><path d="m271.2 138.75 2.4244 7.5173 7.8985-0.0173-6.4002 4.6287 2.4572 7.5066-6.3799-4.6566-6.3799 4.6566 2.4572-7.5066-6.4002-4.6287 7.8985 0.0173z"/><path d="m296.2 138.75 2.4244 7.5173 7.8985-0.0173-6.4002 4.6287 2.4572 7.5066-6.3799-4.6566-6.3799 4.6566 2.4572-7.5066-6.4002-4.6287 7.8985 0.0173z"/></g><style type="text/css">
	.st0{fill:#D87459;}
	.st1{fill-rule:evenodd;clip-rule:evenodd;fill:#843D1C;}
	.st2{fill:#564E43;}
	.st3{fill:#DCC5A1;}
	.st4{fill:#EDD9B4;}
	.st5{fill:#BC9F82;}
	.st6{fill:#D43329;}
	.st7{fill:#CA3029;}
	.st8{fill:#A82623;}
	.st9{fill:#342214;}
	.st10{fill:#C93938;}
	.st11{fill:#BE1E2D;}
</style></svg>
