<?xml version="1.0" encoding="UTF-8"?>
<svg width="372.49mm" height="372.49mm" version="1.1" viewBox="0 0 372.49 372.49" xmlns="http://www.w3.org/2000/svg" xmlns:xlink="http://www.w3.org/1999/xlink"><defs><rect id="SVGID_1_" x="247.5" y="384.5" width="17" height=".6"/></defs><g transform="translate(-25.226 55.557)"><g transform="matrix(.26458 0 0 .26458 189.28 -61.775)"><path class="st1-0" d="m77.7 370.5c9.6-8.5 30.9-25.4 95.5-55.9l46.5 64.5 36.3-34.5 36.3 34.5 46.5-64.5c64.5 30.5 85.9 47.4 95.5 55.9 2.9 2.6 5.6 6.3 8.1 10.9 18.7-31.9 29.4-69.1 29.4-108.7-0.1-119.1-96.7-215.7-215.8-215.7s-215.7 96.6-215.7 215.8c0 39.6 10.7 76.8 29.4 108.7 2.4-4.7 5.1-8.4 8-11z" fill="#ce6c21"/><path class="st1-1" d="m209.7 220.5v105.7c12.7 15 29.5 22.8 46.3 23v-171.5c-23.1 0-46.3 14.3-46.3 42.8z" fill="#dcc5a1"/><path class="st1-2" d="m256 177.7v171.4c16.8 0.1 33.5-7.4 46.3-23v-105.6c0-28.5-23.2-42.8-46.3-42.8z" fill="#edd9b4"/><path class="st1-3" d="m302.3 213.2v70.7c-17.5 12.8-34.4 19.9-46.3 19.9s-28.8-7.2-46.3-19.9v-70.7c0-57.1 92.6-57.1 92.6 0" clip-rule="evenodd" fill="#bc9f82" fill-rule="evenodd"/><path class="st1-4" d="m206.2 209.7c13 10.2 86.6 9.7 99.6 0-11.3 53.8-84.6 55.4-99.6 0" clip-rule="evenodd" fill="#fff" fill-rule="evenodd"/><path class="st1-1" d="m256 23.5c-87.7 0-108 59.8-107.3 114.6-3.9-3.2-8.2-4.6-12-3.3-8.2 2.7-11 16.3-6.4 30.4s15 23.3 23.2 20.7c0.2-0.1 0.4-0.2 0.5-0.2 4.3 21 10.1 36.6 12.7 40.5 11.2 16.5 64.2 60.1 89.3 60.1z" fill="#dcc5a1"/><path class="st1-2" d="m374.9 134.8c-3.7-1.2-7.8 0-11.6 3 0.7-54.7-19.8-114.3-107.3-114.3v262.8c25.1 0 78.1-43.7 89.3-60.1 2.6-3.9 8.4-19.4 12.7-40.3 0.1 0 0.1 0.1 0.2 0.1 8.2 2.7 18.5-6.6 23.2-20.7 4.5-14.2 1.7-27.8-6.5-30.5z" fill="#edd9b4"/><polygon class="st1-5" points="256 344.6 292.3 379.1 338.8 314.6 302.3 298" fill="#fff"/><polygon class="st1-5" points="256 344.6 219.7 379.1 173.2 314.6 209.7 298" fill="#fff"/><path class="st1-6" d="m256 23.5c-108.6 0-107.5 58.2-107.4 112.3 0.1 43.1 13.6 83.7 18.1 90.3 11.2 16.5 64.2 60.1 89.3 60.1s78.1-43.7 89.3-60.1c4.5-6.6 18-47.2 18.1-90.3 0.1-54.1 1.2-112.3-107.4-112.3zm97.8 145.5c-4.3 39.1-5.9 45.9-17.9 61.2-11.9 15.3-40.8 31.4-56.9 39.1-15.4 7.3-6.8-12.5-23-14.3-16.1 1.9-7.6 21.6-23 14.3-16.2-7.7-45.1-23.8-56.9-39.1-11.9-15.3-13.6-22.1-17.9-61.2s0.8-109.7 26.3-108 41.7 6 71.4 6c29.8 0 45.9-4.2 71.4-6 25.6-1.7 30.7 68.8 26.5 108z" clip-rule="evenodd" fill-rule="evenodd"/><path class="st1-7" d="m215.3 142.2c5.5 0 10 5.1 10 11.3 0 6.3-4.5 11.3-10 11.3s-10-5.1-10-11.3c0-6.3 4.5-11.3 10-11.3" fill="#342214"/><path class="st1-7" d="m296.3 142.2c5.5 0 10 5.1 10 11.3 0 6.3-4.5 11.3-10 11.3s-10-5.1-10-11.3c0-6.3 4.5-11.3 10-11.3" fill="#342214"/><path class="st1-5" d="m235.2 213.8c3.5 7.8 11.4 13.3 20.6 13.3s17-5.5 20.6-13.3z" fill="#fff"/><polygon class="st1-8" points="" fill="#be1e2d"/><path class="st1-8" d="m376.7 435.6s0.7 5.5 1.9 14.6c26-18 47.8-41.5 63.8-68.8-2.5-4.6-5.2-8.4-8.1-10.9-9.6-8.5-30.9-25.4-95.5-55.9l-46.5 64.5-36.3-34.5-36.3 34.5-46.5-64.5c-64.6 30.5-85.9 47.4-95.5 55.9-2.9 2.6-5.6 6.3-8.1 10.9 16 27.4 37.8 50.9 63.8 68.8 1.2-9.1 1.9-14.6 1.9-14.6v16c34.4 23.3 76 36.9 120.6 36.9 44.7 0 86.2-13.6 120.7-36.9 0.1-10 0.1-16 0.1-16z" fill="#be1e2d"/><path class="st1-9" d="m135.3 435.6s-0.7 5.5-1.9 14.6c0.6 0.4 1.3 0.9 1.9 1.3v-15.9z" fill="#ac1927"/><path class="st1-9" d="m376.7 451.6c0.7-0.4 1.3-0.9 1.9-1.3-1.2-9.1-1.9-14.6-1.9-14.6v15.9z" fill="#ac1927"/></g><g transform="matrix(.26458 0 0 .26458 50.195 13.067)"><path class="st4-0" d="m210.4 330v23.3h91.1v-23.3c27.1 37.8 84.8 44.9 130.8 55.2 2.3 0.5 4.5 1.2 6.6 1.9 20.8-33.2 32.8-72.3 32.8-114.3 0-119.2-96.6-215.8-215.7-215.8s-215.7 96.6-215.7 215.8c0 42 12 81.2 32.8 114.3 2.1-0.8 4.3-1.4 6.6-1.9 46-10.3 103.7-17.4 130.7-55.2z" fill="#d87459"/><path class="st4-1" d="m203.8 36.5c17.1-15.9 108.8-28.1 145.5 31.8s17.1 45.2 37.9 83.2c20.8 37.9 20.8 42.8 1.2 69.7s-40.3 47.7-23.2 66 24.5 28.1 7.3 53.8c-17.1 25.7 41.6 55 18.3 86.8-23.2 31.8-231.1 41.6-244.6 4.9s8.6-62.4-4.9-80.7c-13.5-18.4-34.2-36.7 0-62.4 19.8-14.9-8.9-28.9-22.7-54.7-15.7-29.3-5.8-66 1.9-77.3 18.5-26.9 14.8-128.4 83.3-121.1" clip-rule="evenodd" fill="#843d1c" fill-rule="evenodd"/><path class="st4-2" d="m301.6 353.3c-0.1 0.1-0.2 0.2 0 0h-91.1c0.1 0.2 0.1 0.1 0 0l21.2 133.8c8 0.9 16.1 1.4 24.3 1.4s16.3-0.5 24.3-1.4z" fill="#564e43"/><path class="st4-3" d="m256 339.2c-11.7 0-28.3-7.5-45.5-20.8v34.9c0.3 0.3 0.6 0.6 0.8 1 12.4 15.2 28.6 23.2 44.7 23.3v-38.4z" fill="#dcc5a1"/><path class="st4-4" d="m256 377.6c16.2 0.1 32.3-7.5 44.7-23.3 0.3-0.3 0.6-0.7 0.9-1v-34.9c-17.2 13.3-33.8 20.8-45.6 20.8z" fill="#edd9b4"/><path class="st4-5" d="m256 339.2v-142.7c-22.8 0-45.6 15.1-45.6 45.2v76.7c17.3 13.3 33.9 20.8 45.6 20.8z" fill="#bc9f82"/><path class="st4-5" d="m256 196.5v142.8c11.7 0 28.3-7.5 45.6-20.8v-76.7c0-30.2-22.8-45.3-45.6-45.3z" fill="#bc9f82"/><path class="st4-1" d="m323.6 173.7c19.9 22.6 29.8 42.2 22.2 66.3-7.7 24.2-4.6 42.8 22.2 58.2 26.7 15.4 17.1 18.4 10.9 46.3-3.8 17.4 10.7 33.2 30.2 33.2 3.7 0-20.1-8.7-17-26.4 5-28.5 31-44.3 6.1-71.3s-16.2-30.8-8.9-47.7c7.3-17-13.3-49-39-75.8-157-163.9-46.6-5.4-26.7 17.2" clip-rule="evenodd" fill="#843d1c" fill-rule="evenodd"/><path class="st4-1" d="m190.7 178.9c-20.9 21.8-31.6 40.9-24.9 65.4s2.8 43-24.6 57.2c-27.3 14.2-17.8 17.6-12.8 45.8 3.1 17.5-12.1 32.7-31.6 31.9-3.7-0.2 20.5-7.9 18.1-25.7-3.8-28.7-29.1-45.6-3.1-71.5s17.5-30.1 10.9-47.3 15.3-48.3 42.1-74.1c163.7-157.2 46.8-3.4 25.9 18.3" clip-rule="evenodd" fill="#843d1c" fill-rule="evenodd"/><path class="st4-3" d="m254.7 49.1c-79.2 0-116.5 70.3-112.8 131.6-4.6-2.9-9.4-3.7-13.4-2-9.2 4-11.2 20.1-4.3 36.1s19.9 25.7 29.2 21.7c1.3-0.6 2.4-1.4 3.4-2.4 25 50.4 73.2 83.7 97.9 83.7 0.4 0 0.9-0.1 1.3-0.1v-268.6h-1.3z" fill="#dcc5a1"/><path class="st4-4" d="m383.5 178.7c-4.8-2.1-10.6-0.4-16.1 3.9 4.6-61.4-32.3-132.7-111.4-133.5v268.7c25.3-1.1 73.3-34.9 97.6-85.6 1.3 1.9 3 3.4 5 4.3 9.2 4 22.3-5.8 29.2-21.7 6.8-16 4.9-32.2-4.3-36.1z" fill="#edd9b4"/><g clip-rule="evenodd" fill="#843d1c" fill-rule="evenodd"><path class="st4-1" d="m208 78.2c7 34.2 43.3 52.3 77.5 57.4 34.2 5 64.4 5 45.3 28.2-19.1 23.1-8.1 44.3 10.1 57.4 18.1 13.1 12.1 48.3-4 70.4s-20.1 41.3-1 62.4 9.1 21.9-7 48.1c-10 16.3-2.4 35.2 15.8 39.5 3.4 0.8-15.5-13.1-6-29.9 15.3-27 36.5-36.6 23.5-68.8-13.1-32.2-5-33.2 8-48.3 13.1-15.1 18.1-53.3 2-84.5s11.1-21.1 8-59.4-96.7-179.2-172.2-72.5"/><path class="st4-1" d="m303.4 71.5c22.5 20.1 34.6 39.9 29.9 64.8-4.8 24.9 0.6 43.1 28.9 55.1 28.3 12.1 19.1 16.2 16.3 44.7-1.8 17.7 14.6 31.7 33.9 29.3 3.7-0.4-21-6.2-20-24.2 1.6-28.9 25.5-47.7-2.4-71.5-27.9-23.9-30.5-31.7-25.3-49.4 5.3-17.7-8.7-43.6-37-67.5-34.1-29.1-46.7-1.4-24.3 18.7"/><path class="st4-1" d="m204.2 71.5c-22.5 20.1-34.6 39.9-29.9 64.8 4.8 24.9-0.6 43.1-28.9 55.1-28.4 12.1-19.1 16.2-16.3 44.7 1.7 17.7-14.6 31.7-33.9 29.3-3.7-0.4 21-6.2 20-24.2-1.6-28.9-25.5-47.7 2.4-71.5 27.9-23.9 30.5-31.7 25.3-49.4s8.7-43.6 37-67.5c34.1-29.1 46.8-1.4 24.3 18.7"/><path class="st4-1" d="m268.4 49.3c-23.6 13.7-105 92.8-114.1 120.5-9.2 27.7 0.4 50.3 5.9 70.6-19.9-5-69.2-227.1 108.2-191.1"/></g><path class="st4-6" d="m268.5 261.2s0.5 7.9-13 7.9c-3.9 0-12.8-1.7-12.8-7.7 7.9 2 17.3 2.4 25.8-0.2" fill="#d43329"/><path class="st4-7" d="m260.6 258c3 0.4 8.2 3.1 7.9 3.2-8.4 2.6-17.9 2.1-25.8 0.2-0.1 0-0.2 0-0.2-0.1 2.7-1.1 6.2-3.4 8.8-3.2 1.4 0.1 3.1 1.2 4.4 1.2 1.8 0.1 3-1.6 4.9-1.3" fill="#ca3029"/><path class="st4-8" d="m238.2 260.2c10.1 4.2 24.3 4.6 34.2-0.2 0.2-0.1 0.1-0.5-0.2-0.4-11.9 3.8-21.9 3.1-34 0.6v0" fill="#a82623"/><path class="st4-9" d="m208.5 178.8c6.4 0 11.7 5.9 11.7 13.3 0 7.3-5.2 13.3-11.7 13.3s-11.7-5.9-11.7-13.3c0-7.3 5.3-13.3 11.7-13.3" fill="#342214"/><path class="st4-9" d="m303.5 178.8c6.4 0 11.7 5.9 11.7 13.3 0 7.3-5.2 13.3-11.7 13.3s-11.7-5.9-11.7-13.3c0-7.3 5.2-13.3 11.7-13.3" fill="#342214"/><g fill="#c93938"><path class="st4-10" d="m210.4 353.3c-0.1-0.2 0-0.1 0 0z"/><path class="st4-10" d="m210.4 353.3c0.1 0.1 0.2 0.2 0 0z"/><path class="st4-10" d="m301.6 353.3c0-0.1 0.1-0.2 0 0z"/><path class="st4-10" d="m301.6 353.3c-0.2 0.2-0.1 0.1 0 0z"/></g><path class="st4-11" d="m301.6 353.3c-0.2 0.2-0.1 0.1 0 0 0-0.1 0.1-0.2 0 0z" fill="#be1e2d"/><path class="st4-11" d="m210.4 353.3c0.1 0.1 0.2 0.2 0 0-0.1-0.2 0-0.1 0 0z" fill="#be1e2d"/><path class="st4-10" d="m231.7 487.1-21.2-133.8c-0.1-0.1-0.1-0.2 0 0v-23.3c-27.1 37.8-84.8 44.9-130.8 55.2-2.3 0.5-4.5 1.2-6.6 1.9 34 54.4 91.7 92.5 158.6 100z" fill="#c93938"/><path class="st4-10" d="m301.6 330v23.3c0.1-0.2 0.1-0.1 0 0l-21.2 133.8c66.9-7.5 124.6-45.6 158.6-100-2.1-0.8-4.3-1.4-6.6-1.9-46.1-10.3-103.8-17.4-130.8-55.2z" fill="#c93938"/></g><g transform="matrix(.26458 0 0 .26458 243.38 54.968)"><path class="st7-0" d="m83.1 374.7c10-8.9 34.1-27.7 108.8-61.8 0.6-0.3 1.1-0.5 1.7-0.8l15.9-7.1c0.5-0.2 1.1-0.5 1.6-0.7v20.3l3.8 33c18.1-5.2 41.3-10.7 41.3-10.7l40.4 13.9 4.2-36.2v-20.2c1.4 0.6 2.9 1.3 4.3 1.9l3.5 1.6c5.5 2.4 10.7 4.8 15.7 7.1 72 33.1 94.7 51 104.5 59.8 3.4 3 6.5 7.7 9.3 13.6 21.2-33.4 33.5-73 33.5-115.5 0.1-119.3-96.5-215.9-215.6-215.9s-215.7 96.6-215.7 215.8c0 42.5 12.3 82.1 33.5 115.5 2.8-5.9 5.9-10.6 9.3-13.6z" fill="#746764"/><path class="st7-1" d="m256.2 346.9s-23.1 5.5-41.3 10.7l15 129.4c1 0.1 1.9 0.2 2.9 0.3l14.7-102.8h16.9l14.7 102.8c0.9-0.1 1.8-0.2 2.7-0.3l14.8-126.2z" fill="#fff"/><path class="st7-2" d="m215 357.6c18.1-5.2 41.3-10.7 41.3-10.7l40.4 13.9 4.2-36.2v-20.2l-2.1-0.9-84.6-0.6c-1 0.5-2 0.9-3.1 1.4v20.3z" fill="#474648"/><path class="st7-3" d="m211.1 222.2v102.4c12.3 14.6 28.6 22.1 44.9 22.3v-166.2c-22.4 0-44.9 13.8-44.9 41.5z" fill="#dcc5a1"/><path class="st7-4" d="m256 180.7v166.2c16.3 0.1 32.5-7.2 44.9-22.3v-102.4c0-27.7-22.5-41.5-44.9-41.5z" fill="#edd9b4"/><path class="st7-5" d="m211.1 271.8v3.2s22.9 27.2 44.8 28.2 44.9-26.3 44.9-26.3v-5" fill="#bc9f82"/><rect class="st7-6" x="211.1" y="271.8" width="89.7" height="31.4" fill="none"/><g clip-rule="evenodd" fill-rule="evenodd"><path class="st7-7" d="m162.8 157.7c-0.1 0-0.2 0-0.3 0.1-7.9 2.6-10.7 15.8-6.2 29.4 2.7 8.3 7.6 14.9 12.7 18.2 4 19 8.8 32.9 11 36.4 9.9 16 53.8 51.2 76.1 51.2v-254.7c-79.9 0-95.8 63.3-93.3 119.4z" fill="#dcc5a1"/><path class="st7-8" d="m349.4 157.9c2.5-56.2-13.4-119.6-93.3-119.6v254.7c22.3 0 66.2-35.2 76.1-51.2 2.2-3.6 7.1-17.6 11.1-36.9 4.9-3.4 9.4-9.8 12-17.7 4.5-13.5 1.8-26.5-5.9-29.3z" fill="#edd9b4"/></g><path class="st7-9" d="m318 42.7c-46.6-36.7-118.6-14.8-140.3 15.8-27.2 38.3-17.6 96.3-11.1 140v-0.2c0.1 0.4 0.2 0.9 0.3 1.4 0.1 0.4 0.9 1.4 1 1.6 0.2 0.4 1.9 0 2.5-0.3 0.2-0.1 0.3-0.4 0.3-0.6 0.3-3.9 0-11.5 0-11.6-0.5-6-1.8-11.8-2.7-17.7 4.4-27.5 17.3-33.3 24-66.5 1.4-2.2 3-4.4 4.6-6.5 1.9-2.4 3.8-4.7 6-6.8 1.2-0.7 2.3-1.5 3.4-2.3 25.1-9.2 51 1.8 74.6 11.5 9.1 3.7 19.2 8.1 29.2 7.3 4.3-0.3 7.5-3.1 7.9-6.7 11.3 34 20.7 49.7 26.2 74.6-0.8 4.3-1.6 8.6-1.9 13.1 0 0.1-0.2 7.7 0 11.6 0 0.2 0.1 0.5 0.3 0.6 0.6 0.3 2.2 0.7 2.5 0.3 0.1-0.3 0.9-1.3 1-1.6 0.4-1.7 0.5-3.1 0.6-4.7 0.3-2.2 0.7-4.5 1-6.9 7-27 20.3-133.8-29.4-145.4m-70.7 36c-0.8-0.2-1.5-0.5-2.3-0.7 1.2 0.3 2.3 0.6 3.5 0.9-0.4 0-0.8-0.1-1.2-0.2" fill="#231f20"/><rect class="st7-6" x="211.1" y="289.4" width="89.7" height="57.5" fill="none"/><g class="st7-10" opacity=".1"><clipPath id="SVGID_2_"><use width="100%" height="100%" xlink:href="#SVGID_1_"/></clipPath><polygon class="st7-11" points="247.6 384.5 264.4 384.5 264.5 385 247.5 385" clip-path="url(#SVGID_2_)" clip-rule="evenodd" fill="#010101" fill-rule="evenodd"/></g><path class="st7-12" d="m209.9 153.1c6.2 0 11.3 5.7 11.3 12.8s-5.1 12.8-11.3 12.8-11.3-5.8-11.3-12.8c0-7.1 5-12.8 11.3-12.8" fill="#342214"/><path class="st7-12" d="m301.7 153.1c6.2 0 11.3 5.7 11.3 12.8s-5.1 12.8-11.3 12.8-11.3-5.8-11.3-12.8c0-7.1 5.1-12.8 11.3-12.8" fill="#342214"/><path class="st7-1" d="m232.5 234.3c4 8.9 13 15.1 23.3 15.1 10.4 0 19.3-6.2 23.4-15.1z" fill="#fff"/><path class="st7-2" d="m305.1 306.3 3.5 1.6c-1.1-0.6-2.3-1.1-3.5-1.6z" fill="#474648"/><path class="st7-2" d="m193.6 312.1 15.9-7.1c-5.5 2.4-10.8 4.8-15.9 7.1z" fill="#474648"/><g fill="#231f20"><path class="st7-9" d="m211.1 304.3-1.6 0.7c0.6-0.2 1.1-0.5 1.6-0.7z"/><path class="st7-9" d="m192 312.9c0.5-0.2 1.1-0.5 1.7-0.7z"/><path class="st7-9" d="m300.9 304.4c1.4 0.6 2.9 1.3 4.3 1.9z"/><path class="st7-9" d="m324.2 314.8-15.6-6.9c5.5 2.4 10.7 4.8 15.7 7.1z"/></g><polygon class="st7-13" points="" fill="#be1e2d"/><path class="st7-2" d="m190 478.2-29.8-60.4 35.2-23.5-43-20.1 39.5-61.4c-74.7 34.1-98.8 53-108.8 61.8-3.4 3-6.5 7.7-9.3 13.6 26.8 42.2 67.7 74.4 116.2 90z" fill="#474648"/><path class="st7-2" d="m428.9 374.7c-9.9-8.7-32.5-26.7-104.5-59.8l35 59.3-43 20.1 35.2 23.5-29.8 60.5c48.5-15.5 89.6-47.8 116.4-90-2.8-5.9-5.9-10.6-9.3-13.6z" fill="#474648"/><path class="st7-9" d="m211.1 324.6v-20.3c-0.5 0.2-1.1 0.5-1.6 0.7l-15.9 7.1c-0.6 0.3-1.1 0.5-1.7 0.8l-39.5 61.4 43 20.1-35.2 23.5 29.8 60.4c12.8 4.1 26.2 7.1 40 8.7l-15-129.4z" fill="#231f20"/><path class="st7-9" d="m316.4 394.3 43-20.1-35-59.3c-5-2.3-10.2-4.7-15.7-7.1l-3.5-1.6c-1.4-0.6-2.8-1.3-4.3-1.9v20.2l-4.2 36.2-14.8 126.3c13.7-1.6 27.1-4.6 39.9-8.7l29.8-60.5z" fill="#231f20"/><path class="st7-14" d="m264.4 384.5 11.2-17.3-19.3-20.3-20.1 20.3 11.4 17.3-14.7 102.8c7.6 0.8 15.3 1.2 23.1 1.2s15.5-0.4 23.1-1.2z" fill="#30a7df"/><polygon class="st7-15" points="211.1 290.7 207.2 306 218.2 385.4 256.2 346.9" clip-rule="evenodd" fill="#e7e7e7" fill-rule="evenodd"/><polygon class="st7-15" points="300.9 290.7 304 305.8 293.6 386.2 256.2 346.9" clip-rule="evenodd" fill="#e7e7e7" fill-rule="evenodd"/></g><g transform="matrix(.26458 0 0 .26458 44.121 145.37)"><path class="st8-0" d="m89.7 379.2c8.9-7.9 29.4-24 89.3-52.4l43.5 60.3 15.2-14.4-0.2-0.4 18.8-17.6 18.4 17.6-0.1 0.1 15.4 14.6 43.4-60.1c60.2 28.4 80.1 44.2 89.1 52.2 4 3.5 7.5 9.3 10.7 16.8 24.4-35 38.7-77.5 38.7-123.3-0.2-119-96.8-215.6-215.9-215.6s-215.7 96.6-215.7 215.8c0 45.9 14.3 88.4 38.7 123.3 3.2-7.5 6.7-13.4 10.7-16.9z" fill="#94d9f8"/><path class="st8-1" d="m256 192.5v163.3c15.6 0.1 31.3-10.2 43.2-24.8v-98.6c0-26.6-21.6-39.9-43.2-39.9z" fill="#edd9b4"/><path class="st8-2" d="m212.8 232.5v98.5c11.9 14 27.5 24.7 43.2 24.8v-163.3c-21.6 0-43.2 13.3-43.2 40z" fill="#dcc5a1"/><path class="st8-3" d="m299.2 232.5v66c-16.4 11.8-32.1 18.5-43.2 18.5s-26.8-6.7-43.2-18.6v-66c0-53.2 86.4-53.2 86.4 0.1" clip-rule="evenodd" fill="#bc9f82" fill-rule="evenodd"/><path class="st8-4" d="m328.1 47.5c21.3 3.4 33 18 38.1 37.8 13.1 51.5-14.3 163.2-109.3 164.6-49 0.7-84.3-11.8-97.1-51.4-12.9-39.6-18.1-103.5 9.8-139.4 35.1-45.1 108.9-45.5 158.5-11.6" clip-rule="evenodd" fill="#8b5e3c" fill-rule="evenodd"/><g clip-rule="evenodd" fill-rule="evenodd"><path class="st8-5" d="m155.9 154.5c-3.7-3-7.7-4.3-11.3-3.1-7.6 2.5-10.3 15.2-5.9 28.3 4.2 12.6 13.2 21 20.7 19.5 4.1 23.3 10.5 41.2 13.3 45.3 10.4 15.4 59.9 56.1 83.3 56.1v-245.1c-77.6 0-98.7 50.2-100.1 99z" fill="#dcc5a1"/><path class="st8-6" d="m367 151.4c-3.4-1.1-7.3 0-10.9 2.8-1.5-48.7-22.6-98.7-100.1-98.7v245.1c23.4 0 72.9-40.7 83.3-56.1 2.8-4.1 9.2-22 13.3-45.2 7.4 1.2 16.2-7.2 20.3-19.6 4.3-13.1 1.7-25.8-5.9-28.3z" fill="#edd9b4"/></g><path class="st8-7" d="m256.2 355.3-43.4-43.8c-12.5 5.5-23.7 10.6-33.8 15.4l43.5 60.3z" fill="#fff"/><path class="st8-7" d="m289.9 387.2 43.4-60.1c-10.2-4.8-21.5-10-34.1-15.5l-43 43.7z" fill="#fff"/><path class="st8-8" d="m209.2 160.5c6.3 0 11.5 5.8 11.5 13s-5.1 13-11.5 13c-6.3 0-11.5-5.8-11.5-13s5.2-13 11.5-13" fill="#342214"/><path class="st8-8" d="m302.4 160.5c6.3 0 11.5 5.8 11.5 13s-5.1 13-11.5 13c-6.3 0-11.5-5.8-11.5-13s5.2-13 11.5-13" fill="#342214"/><path class="st8-7" d="m232.1 243c4.1 9 13.1 15.3 23.7 15.3s19.6-6.3 23.7-15.3z" fill="#fff"/><path class="st8-4" d="m327 99.1c-25.5 15.7-55.7 10.2-44-3.6 11.8-13.7-1.2-4.2-24.1 5.9-23 10-49.4 8.4-33.8-0.1 19-10.3-55.2-17-68.7 88.9-21.7-76.8 15-141.2 97.9-144.8 88.6-3.9 124.5 66.2 100 142.5 1.6-41.4-8.4-68.4-27.3-88.8" clip-rule="evenodd" fill="#8b5e3c" fill-rule="evenodd"/><polygon class="st8-9" points="278.2 487.4 278.3 488.2" fill="none"/><polygon class="st8-9" points="233.8 487.4 233.7 488.2" fill="none"/><polygon class="st8-10" points="278.2 487.4 264.1 388.6" fill="#be1e2d"/><polygon class="st8-10" points="247.9 388.6 233.8 487.4" fill="#be1e2d"/><path class="st8-11" d="m422.3 379.2c-9-7.9-28.9-23.7-89.1-52.2l-43.4 60.1-15.4-14.6-10.4 16.1 14.1 98.7c32.8-3.4 63.5-14.1 90.3-30.5v-16.9s0.8 5.9 2 15.6c24.6-15.4 45.8-35.7 62.4-59.5-3-7.4-6.5-13.3-10.5-16.8z" fill="#00aeef"/><path class="st8-11" d="m141.4 455.6c1.2-9.7 2-15.6 2-15.6v16.9c26.8 16.4 57.5 27.2 90.3 30.5l14.1-98.7-10.2-15.8-15.2 14.4-43.4-60.4c-59.9 28.4-80.4 44.5-89.3 52.4-4 3.5-7.5 9.4-10.7 16.8 16.6 23.7 37.8 44 62.4 59.5z" fill="#00aeef"/><polygon class="st8-12" points="256.2 354.8 237.4 372.4 237.7 372.8 256.2 355.3 274.5 372.6 274.6 372.4" fill="#ef3f6c"/><path class="st8-12" d="m264.1 388.6 10.4-16.1-18.3-17.3-18.5 17.6 10.2 15.8-14.1 98.7c7.3 0.7 14.7 1.1 22.2 1.1s14.9-0.4 22.2-1.1z" fill="#ef3f6c"/><path class="st8-7" d="m141.4 455.6c0.7 0.4 1.4 0.9 2.1 1.3v-16.9s-0.9 5.9-2.1 15.6z" fill="#fff"/><path class="st8-7" d="m368.5 456.8c0.7-0.4 1.4-0.9 2.1-1.3-1.2-9.7-2-15.6-2-15.6s0 6.4-0.1 16.9z" fill="#fff"/></g><g transform="matrix(.26458 0 0 .26458 215.01 187.71)"><path class="st11-0" d="m218.8 328.1c0.4 0.6 16.1 1.1 33.5 1.7h7.3c17.5-0.6 33.2-1.1 33.5-1.7 23.6 37.1 80.6 54.7 124 64.4 5.4 1.2 10.1 3.1 14.3 5.6 25.3-35.3 40.2-78.6 40.2-125.4 0.1-119.1-96.5-215.7-215.6-215.7s-215.7 96.6-215.7 215.8c0 46.8 14.9 90.1 40.2 125.4 4.2-2.5 8.9-4.4 14.3-5.6 43.4-9.7 100.4-27.3 124-64.5z" fill="#55969d"/><path class="st11-1" d="m258.9 395.3c-123 2.5-136.7-142.6-132.3-214.3 8.3-133.7 129.6-187.3 179.1-141.4 52.6 0 77.3 65.4 83.2 140 8 99.4-28.7 213.6-130 215.7" clip-rule="evenodd" fill="#a24323" fill-rule="evenodd"/><path class="st11-2" d="m249.3 488.4v-94.4l6.7-6.9 6.7 6.9v94.4c69.6-2.1 130.9-37.2 168.8-90.2-4.2-2.5-8.9-4.4-14.3-5.6-43.4-9.7-100.4-27.3-124-64.4-0.4 0.6-16.1 1.1-33.5 1.7h-7.3c-17.5-0.6-33.2-1.1-33.5-1.7-23.6 37.1-80.6 54.7-124 64.4-5.4 1.2-10.1 3.1-14.3 5.6 37.8 53 99.1 88.1 168.7 90.2z" fill="#288085"/><path class="st11-3" d="m296.9 230.4c0-27-20.4-40.5-40.9-40.5v197.1l40.9-56.6z" fill="#edd9b4"/><path class="st11-4" d="m215.1 230.4v100.1l40.9 56.5v-197.2c-20.4 0-40.9 13.5-40.9 40.6z" fill="#dcc5a1"/><path class="st11-5" d="m296.9 230.4v67c-15.5 12.1-30.4 18.9-40.9 18.9s-25.4-6.8-40.9-18.9v-67c0.1-54.1 81.8-54.1 81.8 0" clip-rule="evenodd" fill="#bc9f82" fill-rule="evenodd"/><path class="st11-6" d="m235.8 170.4c-11.8-6.9-29.8-9.5-48.6-8.2s-31.9 8.8-32.5 9.2-0.5 4.7-0.5 7.4 0.3 5 1.2 5.9 5.7 2.5 7.4 9.9 5.8 23.3 17.3 32.6 24.4 11.3 40.1 5.9 21.3-18.7 22.5-21 4.6-13.5 6.1-16.4 3.3-4.4 5.6-4.4v-14.7c-4.7 0.1-6.8 0.7-18.6-6.2m5.9 25.3c-1.5 13.2-13.1 35.5-33 36.4s-33-11.7-37.4-22.8-6.4-28.4 7.5-35.2 34.3-6.8 49-1.2 14.9 14 13.9 22.8" fill="#703d22"/><path class="st11-7" d="m260 195.7c1.5 2.9 4.9 14.1 6.1 16.4s6.8 15.6 22.5 21 28.6 3.4 40.1-5.9 15.6-25.2 17.3-32.6 6.5-9 7.4-9.9 1.2-3.2 1.2-5.9 0.1-7-0.5-7.4-13.7-7.9-32.5-9.2-36.8 1.3-48.6 8.2-13.9 6.3-18.6 6.3v14.7c2.4 0 4.1 1.4 5.6 4.3m21-22.8c14.7-5.6 35.1-5.6 49 1.2s11.9 24.2 7.5 35.2c-4.4 11.1-17.5 23.8-37.4 22.8-19.9-0.9-31.5-23.2-33-36.4-1-8.8-0.8-17.2 13.9-22.8" fill="#562c19"/><path class="st11-4" d="m151.3 163.1c-4.2-2.5-8.5-3.3-12.2-1.7-8.6 3.7-10.3 18.6-4 33.4 6.3 14.7 18.3 23.7 26.9 20.2 21.9 50.6 70 84.6 94 84.6v-248.9c-69.3 0-104 58.1-104.7 112.4z" fill="#dcc5a1"/><path class="st11-3" d="m375.2 161.4c-4.3-1.9-9.6-0.4-14.5 3.3 0-54.7-34.7-114-104.7-114v248.9c24.2 0 72.7-34.5 94.4-85.7 0.6 0.4 1.2 0.8 1.8 1 8.6 3.7 20.6-5.3 27-20.1s4.6-29.7-4-33.4z" fill="#edd9b4"/><polygon class="st11-8" points="326 359.1 296.9 330.4 256 387 257.5 388.5 285.6 417.6" fill="#fff"/><polygon class="st11-8" points="256 387 215.1 330.4 186 359.1 226.4 417.6 254.5 388.5" fill="#fff"/><path class="st11-9" d="m266.9 255.9s0.4 6.9-11.4 6.9c-3.4 0-11.2-1.5-11.2-6.7 7 1.6 15.2 2 22.6-0.2" fill="#d43329"/><path class="st11-10" d="m260.1 253c2.6 0.4 7.2 2.8 6.9 2.8-7.4 2.2-15.7 1.8-22.6 0.2-0.1 0-0.1 0-0.2-0.1 2.4-1 5.4-3 7.7-2.8 1.3 0.1 2.7 1 3.8 1 1.6 0.1 2.7-1.3 4.4-1.1" fill="#ca3029"/><path class="st11-11" d="m240.4 255c8.9 3.7 21.2 4 29.9-0.1 0.2-0.1 0.1-0.4-0.2-0.4-10.3 3.3-19 2.7-29.7 0.5v0" fill="#a82623"/><path class="st11-12" d="m214.5 183.8c5.6 0 10.2 5.2 10.2 11.6s-4.6 11.6-10.2 11.6c-5.7 0-10.2-5.2-10.2-11.6-0.1-6.4 4.5-11.6 10.2-11.6" fill="#342214"/><path class="st11-12" d="m297.5 183.8c5.6 0 10.2 5.2 10.2 11.6s-4.6 11.6-10.2 11.6c-5.7 0-10.2-5.2-10.2-11.6s4.6-11.6 10.2-11.6" fill="#342214"/><path class="st11-1" d="m364.2 196.8c32.2-137.8-64.8-161.2-121.5-161.2-63.8 0-111.8 75.7-101.1 163.8 34-20.5 64-61 138.3-127.1-10.8 19.4-31.9 54.7-103.6 118.6 38.6 6.4 110.4-42.2 148.7-93.1 9.3 36.1 22.4 75.7 39.2 99" clip-rule="evenodd" fill="#a24323" fill-rule="evenodd"/><path class="st11-8" d="m262.7 393.9-6.7-6.9-6.7 6.9v94.4c2.2 0.1 4.5 0.1 6.7 0.1v-0.1 0.1c2.3 0 4.5 0 6.7-0.1z" fill="#fff"/></g></g><style type="text/css">.st1-0{fill:#CE6C21;}
	.st1-1{fill:#DCC5A1;}
	.st1-2{fill:#EDD9B4;}
	.st1-3{fill-rule:evenodd;clip-rule:evenodd;fill:#BC9F82;}
	.st1-4{fill-rule:evenodd;clip-rule:evenodd;fill:#FFFFFF;}
	.st1-5{fill:#FFFFFF;}
	.st1-6{fill-rule:evenodd;clip-rule:evenodd;}
	.st1-7{fill:#342214;}
	.st1-8{fill:#BE1E2D;}
	.st1-9{fill:#AC1927;}</style><style type="text/css">.st4-0{fill:#D87459;}
	.st4-1{fill-rule:evenodd;clip-rule:evenodd;fill:#843D1C;}
	.st4-2{fill:#564E43;}
	.st4-3{fill:#DCC5A1;}
	.st4-4{fill:#EDD9B4;}
	.st4-5{fill:#BC9F82;}
	.st4-6{fill:#D43329;}
	.st4-7{fill:#CA3029;}
	.st4-8{fill:#A82623;}
	.st4-9{fill:#342214;}
	.st4-10{fill:#C93938;}
	.st4-11{fill:#BE1E2D;}</style><style type="text/css">.st7-0{fill:#746764;}
	.st7-1{fill:#FFFFFF;}
	.st7-2{fill:#474648;}
	.st7-3{fill:#DCC5A1;}
	.st7-4{fill:#EDD9B4;}
	.st7-5{fill:#BC9F82;}
	.st7-6{fill:none;}
	.st7-7{fill-rule:evenodd;clip-rule:evenodd;fill:#DCC5A1;}
	.st7-8{fill-rule:evenodd;clip-rule:evenodd;fill:#EDD9B4;}
	.st7-9{fill:#231F20;}
	.st7-10{opacity:0.1;}
	.st7-11{clip-path:url(#SVGID_2_);fill-rule:evenodd;clip-rule:evenodd;fill:#010101;}
	.st7-12{fill:#342214;}
	.st7-13{fill:#BE1E2D;}
	.st7-14{fill:#30A7DF;}
	.st7-15{fill-rule:evenodd;clip-rule:evenodd;fill:#E7E7E7;}</style><style type="text/css">.st8-0{fill:#94D9F8;}
	.st8-1{fill:#EDD9B4;}
	.st8-2{fill:#DCC5A1;}
	.st8-3{fill-rule:evenodd;clip-rule:evenodd;fill:#BC9F82;}
	.st8-4{fill-rule:evenodd;clip-rule:evenodd;fill:#8B5E3C;}
	.st8-5{fill-rule:evenodd;clip-rule:evenodd;fill:#DCC5A1;}
	.st8-6{fill-rule:evenodd;clip-rule:evenodd;fill:#EDD9B4;}
	.st8-7{fill:#FFFFFF;}
	.st8-8{fill:#342214;}
	.st8-9{fill:none;}
	.st8-10{fill:#BE1E2D;}
	.st8-11{fill:#00AEEF;}
	.st8-12{fill:#EF3F6C;}</style><style type="text/css">.st11-0{fill:#55969D;}
	.st11-1{fill-rule:evenodd;clip-rule:evenodd;fill:#A24323;}
	.st11-2{fill:#288085;}
	.st11-3{fill:#EDD9B4;}
	.st11-4{fill:#DCC5A1;}
	.st11-5{fill-rule:evenodd;clip-rule:evenodd;fill:#BC9F82;}
	.st11-6{fill:#703D22;}
	.st11-7{fill:#562C19;}
	.st11-8{fill:#FFFFFF;}
	.st11-9{fill:#D43329;}
	.st11-10{fill:#CA3029;}
	.st11-11{fill:#A82623;}
	.st11-12{fill:#342214;}</style></svg>
