<?xml version="1.0" encoding="UTF-8"?>
<svg width="768" height="768" version="1.1" viewBox="0 0 768 768" xml:space="preserve" xmlns="http://www.w3.org/2000/svg"><defs><marker id="marker9266" overflow="visible" orient="auto"><path transform="matrix(-.3 0 0 -.3 .69 0)" d="m8.7186 4.0337-10.926-4.0177 10.926-4.0177c-1.7455 2.3721-1.7354 5.6175-6e-7 8.0354z" fill="#c00" fill-rule="evenodd" stroke="#c00" stroke-linejoin="round" stroke-width=".625"/></marker><marker id="marker9148" overflow="visible" orient="auto"><path transform="matrix(.2 0 0 .2 1.48 .2)" d="m-2.5-1c0 2.76-2.24 5-5 5s-5-2.24-5-5 2.24-5 5-5 5 2.24 5 5z" fill="#c00" fill-rule="evenodd" stroke="#c00" stroke-width="1pt"/></marker><marker id="marker9868" overflow="visible" orient="auto"><path transform="matrix(-.3 0 0 -.3 .69 0)" d="m8.7186 4.0337-10.926-4.0177 10.926-4.0177c-1.7455 2.3721-1.7354 5.6175-6e-7 8.0354z" fill="#3c78d8" fill-rule="evenodd" stroke="#3c78d8" stroke-linejoin="round" stroke-width=".625"/></marker><marker id="marker5668" overflow="visible" orient="auto"><path transform="matrix(.2 0 0 .2 1.48 .2)" d="m-2.5-1c0 2.76-2.24 5-5 5s-5-2.24-5-5 2.24-5 5-5 5 2.24 5 5z" fill="#3c78d8" fill-rule="evenodd" stroke="#3c78d8" stroke-width="1pt"/></marker></defs>
     <g transform="rotate(9.7331 -374.66 3283.5)"><path d="m4.504 94.913c-3.107-18.026 8.977-35.153 27.003-38.26l153.49-26.417c18.017-3.107 35.138 8.987 38.245 27.003l65.137 378.26c3.107 18.026-8.992 35.153-27.008 38.261l-153.49 26.428c-18.016 3.097-35.143-9.009-38.245-27.014z" fill="#fff" stroke="#000" stroke-miterlimit="10" stroke-width="8.035"/><rect transform="matrix(.9855 -.1697 .1697 .9855 -45.408 29.357)" x="53.388" y="123.36" width="191.3" height="313.92" fill="#dedddd"/><polygon points="211.25 77.975 216.67 109.4 28.138 141.87 22.729 110.44" fill="#6fcacd"/><polygon points="216.86 110.53 217.72 115.52 29.19 147.99 28.332 143.01" fill="#b2b3b3"/><polygon points="211.25 77.975 269.94 418.76 81.412 451.22 22.729 110.44" fill="none" stroke="#000" stroke-miterlimit="10" stroke-width="5.3566"/><path d="m114.29 57.804c0.334 1.915-0.952 3.745-2.861 4.07-1.936 0.324-3.746-0.952-4.086-2.877-0.329-1.904 0.958-3.745 2.872-4.069 1.93-0.326 3.75 0.961 4.075 2.876z"/><path d="m131.72 69.574c0.256 1.496-0.753 2.929-2.249 3.191l-31.413 5.409c-1.506 0.261-2.935-0.753-3.191-2.25-0.251-1.507 0.743-2.93 2.244-3.191l31.428-5.42c1.507-0.261 2.925 0.765 3.181 2.261z"/><path d="m195.71 459.18c1.454 8.506-4.264 16.594-12.764 18.048-8.501 1.465-16.599-4.237-18.064-12.754-1.464-8.505 4.253-16.593 12.759-18.058 8.502-1.465 16.599 4.248 18.069 12.764z" fill="none" stroke="#000" stroke-miterlimit="10" stroke-width="5.3566"/><line x1="28.138" x2="216.67" y1="141.87" y2="109.4" fill="none" stroke="#000" stroke-miterlimit="10" stroke-width="5.3566"/></g>
<g transform="translate(3.6685 -54.057)" aria-label="Meetip"><path d="m600.07 331.69q1.056 0 1.776 0.72t0.72 1.776v32.496q0 1.056-0.768 1.776-0.72 0.72-1.728 0.72-1.056 0-1.776-0.72t-0.72-1.776v-23.856l-11.616 23.664q-0.816 1.248-2.16 1.248-1.584 0-2.304-1.488l-11.472-22.992v23.424q0 1.056-0.72 1.776t-1.776 0.72-1.776-0.72-0.72-1.776v-32.496q0-1.056 0.72-1.776t1.776-0.72q1.44 0 2.208 1.344l14.256 28.56 13.872-28.56q0.768-1.344 2.208-1.344z"/><path d="m635.28 355.64q0 0.912-0.624 1.536-0.624 0.576-1.584 0.576h-18.24q0.528 3.36 3.024 5.424 2.544 2.064 6.192 2.064 1.44 0 2.976-0.528 1.584-0.528 2.592-1.296 0.672-0.528 1.584-0.528t1.44 0.48q0.864 0.72 0.864 1.632 0 0.864-0.768 1.44-1.632 1.296-4.08 2.112-2.4 0.816-4.608 0.816-3.936 0-7.056-1.68-3.12-1.728-4.896-4.752-1.728-3.024-1.728-6.864t1.632-6.864q1.68-3.072 4.608-4.752 2.976-1.728 6.72-1.728 3.696 0 6.384 1.632t4.128 4.56 1.44 6.72zm-11.952-8.784q-3.504 0-5.712 1.92-2.16 1.92-2.736 5.136h15.984q-0.432-3.216-2.4-5.136t-5.136-1.92z"/><path d="m664.15 355.64q0 0.912-0.624 1.536-0.624 0.576-1.584 0.576h-18.24q0.528 3.36 3.024 5.424 2.544 2.064 6.192 2.064 1.44 0 2.976-0.528 1.584-0.528 2.592-1.296 0.672-0.528 1.584-0.528t1.44 0.48q0.864 0.72 0.864 1.632 0 0.864-0.768 1.44-1.632 1.296-4.08 2.112-2.4 0.816-4.608 0.816-3.936 0-7.056-1.68-3.12-1.728-4.896-4.752-1.728-3.024-1.728-6.864t1.632-6.864q1.68-3.072 4.608-4.752 2.976-1.728 6.72-1.728 3.696 0 6.384 1.632t4.128 4.56 1.44 6.72zm-11.952-8.784q-3.504 0-5.712 1.92-2.16 1.92-2.736 5.136h15.984q-0.432-3.216-2.4-5.136t-5.136-1.92z"/><path d="m681.58 364.37q0.864 0 1.44 0.672 0.624 0.672 0.624 1.728t-0.816 1.728q-0.768 0.672-2.016 0.672h-0.864q-2.352 0-4.32-1.2-1.92-1.248-3.024-3.36t-1.104-4.752v-11.856h-2.208q-1.008 0-1.632-0.576t-0.624-1.44q0-0.96 0.624-1.536t1.632-0.576h2.208v-6.912q0-1.056 0.672-1.728t1.728-0.672 1.728 0.672 0.672 1.728v6.912h4.08q1.008 0 1.632 0.576t0.624 1.536q0 0.864-0.624 1.44t-1.632 0.576h-4.08v11.856q0 1.92 1.056 3.216t2.592 1.296z"/><path d="m690.09 345.37q0-1.104 0.672-1.776 0.72-0.672 1.776-0.672 1.104 0 1.776 0.672t0.672 1.776v21.36q0 1.056-0.672 1.776-0.672 0.672-1.776 0.672-1.056 0-1.776-0.672-0.672-0.72-0.672-1.776zm2.448-13.056q1.296 0 2.208 0.96 0.96 0.912 0.96 2.208t-0.96 2.256q-0.912 0.912-2.208 0.912t-2.256-0.912q-0.912-0.96-0.912-2.256t0.912-2.208q0.96-0.96 2.256-0.96z" fill="#3c78d8"/><path d="m717.35 342.73q3.696 0 6.72 1.776 3.072 1.728 4.8 4.8 1.728 3.024 1.728 6.768t-1.632 6.816q-1.584 3.024-4.416 4.752-2.784 1.728-6.24 1.728-2.784 0-5.184-1.152t-4.08-3.216v12.96q0 1.104-0.672 1.776t-1.776 0.672q-1.056 0-1.776-0.672-0.672-0.672-0.672-1.776v-21.888q0-3.744 1.728-6.768 1.776-3.072 4.752-4.8 3.024-1.776 6.72-1.776zm0 22.32q2.4 0 4.32-1.152 1.968-1.2 3.072-3.216 1.152-2.064 1.152-4.608t-1.152-4.608q-1.104-2.064-3.072-3.216-1.92-1.2-4.32-1.2t-4.368 1.2q-1.92 1.152-3.024 3.216t-1.104 4.608 1.104 4.608q1.104 2.016 3.024 3.216 1.968 1.152 4.368 1.152z" fill="#c00"/></g>
<path d="m331.67 136c32.317-14.744 68.745-20.348 104-16 34.834 4.2962 68.421 18.291 96 40" fill="none" marker-end="url(#marker9868)" marker-start="url(#marker5668)" stroke="#3c78d8" stroke-width="8"/><path d="m331.67 664c32.317 14.744 68.745 20.348 104 16 34.834-4.2962 68.421-18.291 96-40" fill="none" marker-end="url(#marker9266)" marker-start="url(#marker9148)" stroke="#c00" stroke-width="8"/><style type="text/css">
	.st8-0{fill:#94D9F8;}
	.st8-1{fill:#EDD9B4;}
	.st8-2{fill:#DCC5A1;}
	.st8-3{fill-rule:evenodd;clip-rule:evenodd;fill:#BC9F82;}
	.st8-4{fill-rule:evenodd;clip-rule:evenodd;fill:#8B5E3C;}
	.st8-5{fill-rule:evenodd;clip-rule:evenodd;fill:#DCC5A1;}
	.st8-6{fill-rule:evenodd;clip-rule:evenodd;fill:#EDD9B4;}
	.st8-7{fill:#FFFFFF;}
	.st8-8{fill:#342214;}
	.st8-9{fill:none;}
	.st8-10{fill:#BE1E2D;}
	.st8-11{fill:#00AEEF;}
	.st8-12{fill:#EF3F6C;}
</style><g transform="matrix(.74143 0 0 .74143 -26.211 -17.426)"><path class="st8-0" d="m89.7 379.2c8.9-7.9 29.4-24 89.3-52.4l43.5 60.3 15.2-14.4-0.2-0.4 18.8-17.6 18.4 17.6-0.1 0.1 15.4 14.6 43.4-60.1c60.2 28.4 80.1 44.2 89.1 52.2 4 3.5 7.5 9.3 10.7 16.8 24.4-35 38.7-77.5 38.7-123.3-0.2-119-96.8-215.6-215.9-215.6s-215.7 96.6-215.7 215.8c0 45.9 14.3 88.4 38.7 123.3 3.2-7.5 6.7-13.4 10.7-16.9z" fill="#94d9f8"/><path class="st8-1" d="m256 192.5v163.3c15.6 0.1 31.3-10.2 43.2-24.8v-98.6c0-26.6-21.6-39.9-43.2-39.9z" fill="#edd9b4"/><path class="st8-2" d="m212.8 232.5v98.5c11.9 14 27.5 24.7 43.2 24.8v-163.3c-21.6 0-43.2 13.3-43.2 40z" fill="#dcc5a1"/><path class="st8-3" d="m299.2 232.5v66c-16.4 11.8-32.1 18.5-43.2 18.5s-26.8-6.7-43.2-18.6v-66c0-53.2 86.4-53.2 86.4 0.1" clip-rule="evenodd" fill="#bc9f82" fill-rule="evenodd"/><path class="st8-4" d="m328.1 47.5c21.3 3.4 33 18 38.1 37.8 13.1 51.5-14.3 163.2-109.3 164.6-49 0.7-84.3-11.8-97.1-51.4-12.9-39.6-18.1-103.5 9.8-139.4 35.1-45.1 108.9-45.5 158.5-11.6" clip-rule="evenodd" fill="#8b5e3c" fill-rule="evenodd"/><g clip-rule="evenodd" fill-rule="evenodd"><path class="st8-5" d="m155.9 154.5c-3.7-3-7.7-4.3-11.3-3.1-7.6 2.5-10.3 15.2-5.9 28.3 4.2 12.6 13.2 21 20.7 19.5 4.1 23.3 10.5 41.2 13.3 45.3 10.4 15.4 59.9 56.1 83.3 56.1v-245.1c-77.6 0-98.7 50.2-100.1 99z" fill="#dcc5a1"/><path class="st8-6" d="m367 151.4c-3.4-1.1-7.3 0-10.9 2.8-1.5-48.7-22.6-98.7-100.1-98.7v245.1c23.4 0 72.9-40.7 83.3-56.1 2.8-4.1 9.2-22 13.3-45.2 7.4 1.2 16.2-7.2 20.3-19.6 4.3-13.1 1.7-25.8-5.9-28.3z" fill="#edd9b4"/></g><path class="st8-7" d="m256.2 355.3-43.4-43.8c-12.5 5.5-23.7 10.6-33.8 15.4l43.5 60.3z" fill="#fff"/><path class="st8-7" d="m289.9 387.2 43.4-60.1c-10.2-4.8-21.5-10-34.1-15.5l-43 43.7z" fill="#fff"/><path class="st8-8" d="m209.2 160.5c6.3 0 11.5 5.8 11.5 13s-5.1 13-11.5 13c-6.3 0-11.5-5.8-11.5-13s5.2-13 11.5-13" fill="#342214"/><path class="st8-8" d="m302.4 160.5c6.3 0 11.5 5.8 11.5 13s-5.1 13-11.5 13c-6.3 0-11.5-5.8-11.5-13s5.2-13 11.5-13" fill="#342214"/><path class="st8-7" d="m232.1 243c4.1 9 13.1 15.3 23.7 15.3s19.6-6.3 23.7-15.3z" fill="#fff"/><path class="st8-4" d="m327 99.1c-25.5 15.7-55.7 10.2-44-3.6 11.8-13.7-1.2-4.2-24.1 5.9-23 10-49.4 8.4-33.8-0.1 19-10.3-55.2-17-68.7 88.9-21.7-76.8 15-141.2 97.9-144.8 88.6-3.9 124.5 66.2 100 142.5 1.6-41.4-8.4-68.4-27.3-88.8" clip-rule="evenodd" fill="#8b5e3c" fill-rule="evenodd"/><polygon class="st8-9" points="278.3 488.2 278.2 487.4" fill="none"/><polygon class="st8-9" points="233.7 488.2 233.8 487.4" fill="none"/><polygon class="st8-10" points="264.1 388.6 278.2 487.4" fill="#be1e2d"/><polygon class="st8-10" points="233.8 487.4 247.9 388.6" fill="#be1e2d"/><path class="st8-11" d="m422.3 379.2c-9-7.9-28.9-23.7-89.1-52.2l-43.4 60.1-15.4-14.6-10.4 16.1 14.1 98.7c32.8-3.4 63.5-14.1 90.3-30.5v-16.9s0.8 5.9 2 15.6c24.6-15.4 45.8-35.7 62.4-59.5-3-7.4-6.5-13.3-10.5-16.8z" fill="#00aeef"/><path class="st8-11" d="m141.4 455.6c1.2-9.7 2-15.6 2-15.6v16.9c26.8 16.4 57.5 27.2 90.3 30.5l14.1-98.7-10.2-15.8-15.2 14.4-43.4-60.4c-59.9 28.4-80.4 44.5-89.3 52.4-4 3.5-7.5 9.4-10.7 16.8 16.6 23.7 37.8 44 62.4 59.5z" fill="#00aeef"/><polygon class="st8-12" points="237.4 372.4 237.7 372.8 256.2 355.3 274.5 372.6 274.6 372.4 256.2 354.8" fill="#ef3f6c"/><path class="st8-12" d="m264.1 388.6 10.4-16.1-18.3-17.3-18.5 17.6 10.2 15.8-14.1 98.7c7.3 0.7 14.7 1.1 22.2 1.1s14.9-0.4 22.2-1.1z" fill="#ef3f6c"/><path class="st8-7" d="m141.4 455.6c0.7 0.4 1.4 0.9 2.1 1.3v-16.9s-0.9 5.9-2.1 15.6z" fill="#fff"/><path class="st8-7" d="m368.5 456.8c0.7-0.4 1.4-0.9 2.1-1.3-1.2-9.7-2-15.6-2-15.6s0 6.4-0.1 16.9z" fill="#fff"/></g><style type="text/css">
	.st4-0{fill:#D87459;}
	.st4-1{fill-rule:evenodd;clip-rule:evenodd;fill:#843D1C;}
	.st4-2{fill:#564E43;}
	.st4-3{fill:#DCC5A1;}
	.st4-4{fill:#EDD9B4;}
	.st4-5{fill:#BC9F82;}
	.st4-6{fill:#D43329;}
	.st4-7{fill:#CA3029;}
	.st4-8{fill:#A82623;}
	.st4-9{fill:#342214;}
	.st4-10{fill:#C93938;}
	.st4-11{fill:#BE1E2D;}
</style><g transform="matrix(.74177 0 0 .74177 -26.225 405.64)"><path class="st4-0" d="m210.4 330v23.3h91.1v-23.3c27.1 37.8 84.8 44.9 130.8 55.2 2.3 0.5 4.5 1.2 6.6 1.9 20.8-33.2 32.8-72.3 32.8-114.3 0-119.2-96.6-215.8-215.7-215.8s-215.7 96.6-215.7 215.8c0 42 12 81.2 32.8 114.3 2.1-0.8 4.3-1.4 6.6-1.9 46-10.3 103.7-17.4 130.7-55.2z" fill="#d87459"/><path class="st4-1" d="m203.8 36.5c17.1-15.9 108.8-28.1 145.5 31.8s17.1 45.2 37.9 83.2c20.8 37.9 20.8 42.8 1.2 69.7s-40.3 47.7-23.2 66 24.5 28.1 7.3 53.8c-17.1 25.7 41.6 55 18.3 86.8-23.2 31.8-231.1 41.6-244.6 4.9s8.6-62.4-4.9-80.7c-13.5-18.4-34.2-36.7 0-62.4 19.8-14.9-8.9-28.9-22.7-54.7-15.7-29.3-5.8-66 1.9-77.3 18.5-26.9 14.8-128.4 83.3-121.1" clip-rule="evenodd" fill="#843d1c" fill-rule="evenodd"/><path class="st4-2" d="m301.6 353.3c-0.1 0.1-0.2 0.2 0 0h-91.1c0.1 0.2 0.1 0.1 0 0l21.2 133.8c8 0.9 16.1 1.4 24.3 1.4s16.3-0.5 24.3-1.4z" fill="#564e43"/><path class="st4-3" d="m256 339.2c-11.7 0-28.3-7.5-45.5-20.8v34.9c0.3 0.3 0.6 0.6 0.8 1 12.4 15.2 28.6 23.2 44.7 23.3v-38.4z" fill="#dcc5a1"/><path class="st4-4" d="m256 377.6c16.2 0.1 32.3-7.5 44.7-23.3 0.3-0.3 0.6-0.7 0.9-1v-34.9c-17.2 13.3-33.8 20.8-45.6 20.8z" fill="#edd9b4"/><path class="st4-5" d="m256 339.2v-142.7c-22.8 0-45.6 15.1-45.6 45.2v76.7c17.3 13.3 33.9 20.8 45.6 20.8z" fill="#bc9f82"/><path class="st4-5" d="m256 196.5v142.8c11.7 0 28.3-7.5 45.6-20.8v-76.7c0-30.2-22.8-45.3-45.6-45.3z" fill="#bc9f82"/><path class="st4-1" d="m323.6 173.7c19.9 22.6 29.8 42.2 22.2 66.3-7.7 24.2-4.6 42.8 22.2 58.2 26.7 15.4 17.1 18.4 10.9 46.3-3.8 17.4 10.7 33.2 30.2 33.2 3.7 0-20.1-8.7-17-26.4 5-28.5 31-44.3 6.1-71.3s-16.2-30.8-8.9-47.7c7.3-17-13.3-49-39-75.8-157-163.9-46.6-5.4-26.7 17.2" clip-rule="evenodd" fill="#843d1c" fill-rule="evenodd"/><path class="st4-1" d="m190.7 178.9c-20.9 21.8-31.6 40.9-24.9 65.4s2.8 43-24.6 57.2c-27.3 14.2-17.8 17.6-12.8 45.8 3.1 17.5-12.1 32.7-31.6 31.9-3.7-0.2 20.5-7.9 18.1-25.7-3.8-28.7-29.1-45.6-3.1-71.5s17.5-30.1 10.9-47.3 15.3-48.3 42.1-74.1c163.7-157.2 46.8-3.4 25.9 18.3" clip-rule="evenodd" fill="#843d1c" fill-rule="evenodd"/><path class="st4-3" d="m254.7 49.1c-79.2 0-116.5 70.3-112.8 131.6-4.6-2.9-9.4-3.7-13.4-2-9.2 4-11.2 20.1-4.3 36.1s19.9 25.7 29.2 21.7c1.3-0.6 2.4-1.4 3.4-2.4 25 50.4 73.2 83.7 97.9 83.7 0.4 0 0.9-0.1 1.3-0.1v-268.6h-1.3z" fill="#dcc5a1"/><path class="st4-4" d="m383.5 178.7c-4.8-2.1-10.6-0.4-16.1 3.9 4.6-61.4-32.3-132.7-111.4-133.5v268.7c25.3-1.1 73.3-34.9 97.6-85.6 1.3 1.9 3 3.4 5 4.3 9.2 4 22.3-5.8 29.2-21.7 6.8-16 4.9-32.2-4.3-36.1z" fill="#edd9b4"/><g clip-rule="evenodd" fill="#843d1c" fill-rule="evenodd"><path class="st4-1" d="m208 78.2c7 34.2 43.3 52.3 77.5 57.4 34.2 5 64.4 5 45.3 28.2-19.1 23.1-8.1 44.3 10.1 57.4 18.1 13.1 12.1 48.3-4 70.4s-20.1 41.3-1 62.4 9.1 21.9-7 48.1c-10 16.3-2.4 35.2 15.8 39.5 3.4 0.8-15.5-13.1-6-29.9 15.3-27 36.5-36.6 23.5-68.8-13.1-32.2-5-33.2 8-48.3 13.1-15.1 18.1-53.3 2-84.5s11.1-21.1 8-59.4-96.7-179.2-172.2-72.5"/><path class="st4-1" d="m303.4 71.5c22.5 20.1 34.6 39.9 29.9 64.8-4.8 24.9 0.6 43.1 28.9 55.1 28.3 12.1 19.1 16.2 16.3 44.7-1.8 17.7 14.6 31.7 33.9 29.3 3.7-0.4-21-6.2-20-24.2 1.6-28.9 25.5-47.7-2.4-71.5-27.9-23.9-30.5-31.7-25.3-49.4 5.3-17.7-8.7-43.6-37-67.5-34.1-29.1-46.7-1.4-24.3 18.7"/><path class="st4-1" d="m204.2 71.5c-22.5 20.1-34.6 39.9-29.9 64.8 4.8 24.9-0.6 43.1-28.9 55.1-28.4 12.1-19.1 16.2-16.3 44.7 1.7 17.7-14.6 31.7-33.9 29.3-3.7-0.4 21-6.2 20-24.2-1.6-28.9-25.5-47.7 2.4-71.5 27.9-23.9 30.5-31.7 25.3-49.4s8.7-43.6 37-67.5c34.1-29.1 46.8-1.4 24.3 18.7"/><path class="st4-1" d="m268.4 49.3c-23.6 13.7-105 92.8-114.1 120.5-9.2 27.7 0.4 50.3 5.9 70.6-19.9-5-69.2-227.1 108.2-191.1"/></g><path class="st4-6" d="m268.5 261.2s0.5 7.9-13 7.9c-3.9 0-12.8-1.7-12.8-7.7 7.9 2 17.3 2.4 25.8-0.2" fill="#d43329"/><path class="st4-7" d="m260.6 258c3 0.4 8.2 3.1 7.9 3.2-8.4 2.6-17.9 2.1-25.8 0.2-0.1 0-0.2 0-0.2-0.1 2.7-1.1 6.2-3.4 8.8-3.2 1.4 0.1 3.1 1.2 4.4 1.2 1.8 0.1 3-1.6 4.9-1.3" fill="#ca3029"/><path class="st4-8" d="m238.2 260.2c10.1 4.2 24.3 4.6 34.2-0.2 0.2-0.1 0.1-0.5-0.2-0.4-11.9 3.8-21.9 3.1-34 0.6v0" fill="#a82623"/><path class="st4-9" d="m208.5 178.8c6.4 0 11.7 5.9 11.7 13.3 0 7.3-5.2 13.3-11.7 13.3s-11.7-5.9-11.7-13.3c0-7.3 5.3-13.3 11.7-13.3" fill="#342214"/><path class="st4-9" d="m303.5 178.8c6.4 0 11.7 5.9 11.7 13.3 0 7.3-5.2 13.3-11.7 13.3s-11.7-5.9-11.7-13.3c0-7.3 5.2-13.3 11.7-13.3" fill="#342214"/><g fill="#c93938"><path class="st4-10" d="m210.4 353.3c-0.1-0.2 0-0.1 0 0z"/><path class="st4-10" d="m210.4 353.3c0.1 0.1 0.2 0.2 0 0z"/><path class="st4-10" d="m301.6 353.3c0-0.1 0.1-0.2 0 0z"/><path class="st4-10" d="m301.6 353.3c-0.2 0.2-0.1 0.1 0 0z"/></g><path class="st4-11" d="m301.6 353.3c-0.2 0.2-0.1 0.1 0 0 0-0.1 0.1-0.2 0 0z" fill="#be1e2d"/><path class="st4-11" d="m210.4 353.3c0.1 0.1 0.2 0.2 0 0-0.1-0.2 0-0.1 0 0z" fill="#be1e2d"/><path class="st4-10" d="m231.7 487.1-21.2-133.8c-0.1-0.1-0.1-0.2 0 0v-23.3c-27.1 37.8-84.8 44.9-130.8 55.2-2.3 0.5-4.5 1.2-6.6 1.9 34 54.4 91.7 92.5 158.6 100z" fill="#c93938"/><path class="st4-10" d="m301.6 330v23.3c0.1-0.2 0.1-0.1 0 0l-21.2 133.8c66.9-7.5 124.6-45.6 158.6-100-2.1-0.8-4.3-1.4-6.6-1.9-46.1-10.3-103.8-17.4-130.8-55.2z" fill="#c93938"/></g></svg>
