<?xml version="1.0" encoding="UTF-8"?>
<svg width="375.16" height="375.16" version="1.1" viewBox="0 0 375.16 375.16" xml:space="preserve" xmlns="http://www.w3.org/2000/svg"><style type="text/css">
</style><g transform="translate(-32.214 -61.976)"><path d="m376.35 159.02c14.919 0 27.009 12.092 27.009 27.016v127.04c0 14.92-12.09 27.014-27.009 27.014h-313.11c-14.919 0-27.008-12.094-27.008-27.014v-127.04c0-14.924 12.089-27.016 27.008-27.016z" fill="#fff" stroke="#000" stroke-miterlimit="10" stroke-width="8.035"/><rect x="79.241" y="171.52" width="282.11" height="156.05" fill="#70cacc" stroke="#000" stroke-miterlimit="10" stroke-width="5.3566"/><path d="m390.98 252.43c-1.58 0-2.867-1.286-2.867-2.877 0-1.59 1.287-2.877 2.867-2.877 1.596 0 2.882 1.287 2.882 2.877-1e-3 1.591-1.287 2.877-2.882 2.877z"/><path d="m379.1 264.82c-1.24 0-2.244-1.015-2.244-2.26v-26.009c0-1.235 1.004-2.25 2.244-2.25 1.25 0 2.255 1.015 2.255 2.25v26.009c0 1.246-1.005 2.26-2.255 2.26z"/><path d="m57.045 262.31c-7.046 0-12.753-5.707-12.753-12.754 0-7.041 5.708-12.753 12.753-12.753 7.041 0 12.759 5.712 12.759 12.753 0 7.047-5.718 12.754-12.759 12.754z" fill="none" stroke="#000" stroke-miterlimit="10" stroke-width="5.3566"/><g fill="#9bd8db"><polygon points="297.72 327.58 340.65 171.52 318.74 171.52 276.71 327.58"/><polygon points="258.67 327.58 304.61 171.52 312.73 171.52 267.7 327.58"/><polygon points="129.75 327.58 172.68 171.52 159.77 171.52 117.75 327.58"/><polygon points="102.72 327.58 148.64 171.52 153.76 171.52 108.74 327.58"/></g><path d="m245.94 210.73h-48.079l-31.25 31.246v2.406l9.615 9.619v7.209l43.261 43.271s2.417 2.406 4.808 2.406c3.991 0 7.219-3.228 7.219-7.208 0-2.417-2.406-4.813-2.406-4.813l4.812 4.813s2.406 2.396 4.808 2.396c3.976 0 7.214-3.232 7.214-7.209 0-2.406-2.406-4.812-2.406-4.812l2.406 2.406s2.401 2.406 4.802 2.406c3.976 0 7.214-3.227 7.214-7.208 0-2.406-2.396-4.812-2.396-4.812l-4.818-4.812s2.412 2.411 4.818 2.411c3.976 0 7.208-3.228 7.208-7.208 0-2.412-2.401-4.812-2.401-4.812l-2.411-2.406h2.411l9.61-9.615v-4.808l7.208-7.213v-2.406z" fill="#eecb96"/><g fill="#fff"><path d="m230.72 238.78-1.606-16.028h-7.203l-17.425 14.375c-11.095 0.078-5.419-10.462-5.419-10.462l13.229-15.935h30.957l34.18 33.652-6.329 6.104-1.119 5.916-7.209 7.214-4.812 2.396"/><path d="m188.25 272.56s-2.406 5.467-4.807 5.467c-3.986 0-7.214-3.223-7.214-7.209 0-2.4 2.406-7.867 2.406-7.867z"/><path d="m197.87 282.18s-2.406 5.472-4.818 5.472c-3.97 0-7.203-3.243-7.203-7.214 0-2.411 2.406-7.878 2.406-7.878z"/><path d="m207.48 291.79s-2.401 5.467-4.807 5.467c-3.976 0-7.208-3.223-7.208-7.209 0-2.396 2.406-7.867 2.406-7.867z"/><path d="m217.1 301.41s-2.401 5.477-4.808 5.477c-3.986 0-7.219-3.228-7.219-7.208 0-2.417 2.401-7.884 2.401-7.884z"/></g><g fill="none" stroke="#000" stroke-miterlimit="10" stroke-width="5.3566"><line x1="197.87" x2="245.95" y1="210.73" y2="210.73"/><g stroke-linecap="round"><polyline points="260.37 266.02 269.98 256.4 269.98 251.59 277.19 244.38"/><line x1="229.11" x2="255.56" y1="256.4" y2="282.84"/><path d="m260.37 268.42s2.401 2.4 2.401 4.812c0 3.98-3.232 7.208-7.208 7.208-2.406 0-4.818-2.411-4.818-2.411"/><path d="m255.56 282.84s2.396 2.406 2.396 4.812c0 3.981-3.238 7.208-7.214 7.208-2.4 0-4.802-2.406-4.802-2.406l-26.454-26.442"/><path d="m243.54 290.05s2.406 2.406 2.406 4.812c0 3.977-3.238 7.209-7.214 7.209-2.401 0-4.808-2.396-4.808-2.396l-24.047-24.048"/><path d="m229.11 294.86s2.406 2.396 2.406 4.813c0 3.98-3.228 7.208-7.219 7.208-2.391 0-4.808-2.406-4.808-2.406l-43.261-43.271v-7.209l-9.615-9.619"/><path d="m188.25 275.63s-2.406 2.401-4.807 2.401c-3.986 0-7.214-3.223-7.214-7.209 0-2.4 2.406-4.807 2.406-4.807"/><path d="m197.87 285.25s-2.406 2.406-4.818 2.406c-3.97 0-7.203-3.243-7.203-7.214 0-2.411 2.406-4.812 2.406-4.812"/><path d="m207.48 294.86s-2.401 2.396-4.807 2.396c-3.976 0-7.208-3.223-7.208-7.209 0-2.396 2.406-4.802 2.406-4.802"/><path d="m217.1 304.48s-2.401 2.406-4.808 2.406c-3.986 0-7.219-3.228-7.219-7.208 0-2.417 2.401-4.813 2.401-4.813"/><path d="m260.37 268.42-31.261-31.251v-14.422h-7.203l-12.031 12.021s-2.401 2.401-4.802 2.401c-3.981 0-7.208-3.228-7.208-7.214 0-2.406 2.396-4.808 2.396-4.808l13.564-13.465"/></g><polyline points="296.42 232.36 282 246.78 238.73 203.51 253.16 189.09"/><g stroke-linecap="round"><path d="m277.19 227.55"/><path d="m212.29 273.23"/><path d="m207.48 278.03"/></g></g><polygon points="189.56 188.5 204.48 203.44 158.67 249.24 143.75 234.32" fill="#94d9f8" stroke="#000" stroke-linecap="round" stroke-miterlimit="10" stroke-width="5.3566"/><polygon points="250.88 188.5 235.97 203.44 281.77 249.24 296.69 234.32" fill="#d87459" stroke="#000" stroke-linecap="round" stroke-miterlimit="10" stroke-width="5.3566"/><path d="m282.65 231.71c-1.956 0-3.53 1.58-3.53 3.526 0 1.956 1.574 3.536 3.53 3.536 1.957 0 3.537-1.58 3.537-3.536 0-1.946-1.58-3.526-3.537-3.526z"/><path d="m158.12 231.71c-1.946 0-3.531 1.58-3.531 3.526 0 1.956 1.585 3.536 3.531 3.536 1.967 0 3.542-1.58 3.542-3.536 0-1.946-1.575-3.526-3.542-3.526z"/><rect x="79.241" y="171.52" width="282.11" height="156.05" fill="none" stroke="#000" stroke-miterlimit="10" stroke-width="5.3566"/></g></svg>
